<?xml version="1.0" encoding="UTF-8" standalone="no"?>
<svg
   xmlns:dc="http://purl.org/dc/elements/1.1/"
   xmlns:cc="http://creativecommons.org/ns#"
   xmlns:rdf="http://www.w3.org/1999/02/22-rdf-syntax-ns#"
   xmlns:svg="http://www.w3.org/2000/svg"
   xmlns="http://www.w3.org/2000/svg"
   xmlns:sodipodi="http://sodipodi.sourceforge.net/DTD/sodipodi-0.dtd"
   xmlns:inkscape="http://www.inkscape.org/namespaces/inkscape"
   id="Layer_1"
   data-name="Layer 1"
   viewBox="0 0 327.08 443.14"
   version="1.1"
   inkscape:version="0.91 r13725"
   sodipodi:docname="Bergen-challenge-vektorisert.svg">
  <metadata
     id="metadata4394">
    <rdf:RDF>
      <cc:Work
         rdf:about="">
        <dc:format>image/svg+xml</dc:format>
        <dc:type
           rdf:resource="http://purl.org/dc/dcmitype/StillImage" />
      </cc:Work>
    </rdf:RDF>
  </metadata>
  <sodipodi:namedview
     pagecolor="#ffffff"
     bordercolor="#666666"
     borderopacity="1"
     objecttolerance="10"
     gridtolerance="10"
     guidetolerance="10"
     inkscape:pageopacity="0"
     inkscape:pageshadow="2"
     inkscape:window-width="1336"
     inkscape:window-height="699"
     id="namedview4392"
     showgrid="false"
     inkscape:zoom="1.2163199"
     inkscape:cx="163.53999"
     inkscape:cy="287.34218"
     inkscape:window-x="30"
     inkscape:window-y="0"
     inkscape:window-maximized="1"
     inkscape:current-layer="Layer_1" />
  <defs
     id="defs4294">
    <style
       id="style4296">.cls-1{fill:#b9b7b7;}.cls-2{fill:#2dbcca;}.cls-3{fill:#8fd9e0;}.cls-4{fill:#fff;}.cls-5{fill:#05afef;}.cls-6{fill:#0bad4d;}.cls-7{fill:#00b0c0;}.cls-8{fill:#01b0c0;}.cls-9{fill:#29b8c6;}.cls-10{fill:#81d0d9;}.cls-11{fill:#ed1a37;}</style>
  </defs>
  <title
     id="title4298">Bergen-challenge-vektorisert</title>
  <path
     class="cls-1"
     d="m 75.937999,529.46597 -0.34,-0.16 0,-0.68 0.32,-0.17 a 1,1 0 0 1 0.02,1.01 z"
     id="path4300"
     inkscape:connector-curvature="0"
     style="fill:#b9b7b7" />
  <path
     class="cls-2"
     d="m 151.698,192.39597 -0.24,-0.24 0.71,-0.82 c 0.16,0 0.23,0 0.18,0.17 a 4.42,4.42 0 0 1 -0.65,0.89 z"
     id="path4302"
     inkscape:connector-curvature="0"
     style="fill:#2dbcca" />
  <path
     class="cls-3"
     d="M 152.348,191.50597"
     id="path4304"
     inkscape:connector-curvature="0"
     style="fill:#8fd9e0" />
  <path
     class="cls-4"
     d="m 401.588,202.09597 -0.24,-0.24 0.71,-0.83 c 0.16,0 0.23,0 0.17,0.18 a 4.27,4.27 0 0 1 -0.64,0.89 z"
     id="path4306"
     inkscape:connector-curvature="0"
     style="fill:#ffffff" />
  <path
     class="cls-4"
     d="M 402.228,201.20597"
     id="path4308"
     inkscape:connector-curvature="0"
     style="fill:#ffffff" />
  <path
     class="cls-4"
     d="M 221.218,300.67597"
     id="path4310"
     inkscape:connector-curvature="0"
     style="fill:#ffffff" />
  <path
     class="cls-5"
     d="m 180.878,314.49597 c 0,-0.17 0,-0.33 0,-0.5 l 0,-20.76 c 0,-0.15 0,-0.29 0,-0.44 a 0.14,0.14 0 0 1 0.14,-0.14 c 0.1,0 0.19,0 0.2,0.14 0.01,0.14 0,0.22 0,0.33 l 0,21.37 z"
     id="path4312"
     inkscape:connector-curvature="0"
     style="fill:#05afef" />
  <path
     class="cls-4"
     d="m 101.658,309.25597 -0.22,-0.11 0,-0.44 0.21,-0.12 a 0.62,0.62 0 0 1 0.01,0.67 z"
     id="path4314"
     inkscape:connector-curvature="0"
     style="fill:#ffffff" />
  <path
     class="cls-6"
     d="m 158.938,168.00597 c -0.17,1.42 -0.34,2.84 -0.52,4.25 l -0.84,6.45 q -0.54,4.11 -1.09,8.22 c -0.22,1.58 -0.49,3.15 -0.68,4.73"
     id="path4316"
     inkscape:connector-curvature="0"
     style="fill:#0bad4d" />
  <path
     class="cls-7"
     d="m 152.658,159.63597 c -0.33,1.8 -0.64,3.6 -1,5.39 -0.14,0.76 -0.23,1.53 -0.43,2.27 a 52.12,52.12 0 0 1 -9.76,-2.29"
     id="path4318"
     inkscape:connector-curvature="0"
     style="fill:#00b0c0" />
  <path
     class="cls-4"
     d="m 216.168,238.87597 a 1.83,1.83 0 0 0 0.07,-0.7 l 0,-13.76 c 0,-0.71 -0.08,-0.61 0.62,-0.62 1.16,0 2.31,0 3.46,0 0.3,0 0.4,0.1 0.36,0.38 a 2.61,2.61 0 0 0 0,0.28 l 0,24.22 c 0,0.63 0,0.63 -0.61,0.63 -1.17,0 -2.34,0 -3.51,0"
     id="path4320"
     inkscape:connector-curvature="0"
     style="fill:#ffffff" />
  <path
     class="cls-4"
     d="M 175.738,247.24597"
     id="path4322"
     inkscape:connector-curvature="0"
     style="fill:#ffffff" />
  <path
     class="cls-7"
     d="m 176.008,166.00597 c -0.82,-2.23 -1.65,-4.47 -2.47,-6.71 0,-0.14 -0.07,-0.28 -0.11,-0.42 1.67,-0.43 3.34,-0.88 5,-1.44 a 33,33 0 0 0 9.37,-4.79 15.23,15.23 0 0 0 3.14,-3.14 7.82,7.82 0 0 0 0.83,-8.54"
     id="path4324"
     inkscape:connector-curvature="0"
     style="fill:#00b0c0" />
  <path
     class="cls-4"
     d="m 123.308,236.50597 0,-12.09 c 0,-0.71 -0.07,-0.61 0.62,-0.62 l 12.31,0 c 0.41,0 0.41,0 0.41,0.44 0,1.15 0,2.31 0,3.46 0,0.42 0,0.43 -0.42,0.43 l -7.57,0 c -0.48,0 -0.48,0 -0.47,0.44 0,1.65 0,3.3 0,5 0,0.46 0,0.44 0.47,0.44 l 5.63,0 c 0.25,0 0.38,0.06 0.36,0.34 -0.02,0.28 0,0.67 0,1 0,0.82 0,1.64 0,2.45 0,0.58 0.07,0.52 -0.55,0.53 l -5.4,0 c -0.49,0 -0.49,0 -0.49,0.47 l 0,5.74 c 0,0.49 0,0.48 0.47,0.48 l 8.14,0 c 0.14,0 0.2,0.08 0.2,0.21 l 0,3.73 c 0,0.38 0,0.39 -0.4,0.39 l -12.89,0 c -0.42,0 -0.42,0 -0.42,-0.49 z"
     id="path4326"
     inkscape:connector-curvature="0"
     style="fill:#ffffff" />
  <path
     class="cls-4"
     d="m 184.658,236.55597 0,-12.08 c 0,-0.15 0,-0.3 0,-0.45 0,-0.15 0.08,-0.23 0.24,-0.23 0.16,0 0.22,0 0.33,0 l 12.37,0 c 0.4,0 0.41,0 0.41,0.39 0,1.19 0,2.38 0,3.56 0,0.29 -0.09,0.39 -0.38,0.38 l -7.69,0 c -0.4,0 -0.4,0 -0.4,0.38 q 0,2.53 0,5.07 c 0,0.38 0,0.39 0.4,0.39 l 5.51,0 c 0.51,0 0.51,0 0.51,0.52 l 0,3.4 c 0,0.41 0,0.4 -0.39,0.4 l -5.57,0 c -0.46,0 -0.46,0 -0.47,0.44 0,1.95 0,3.9 0,5.84 0,0.44 0,0.41 0.44,0.41 l 8,0 c 0.26,0 0.37,0.05 0.37,0.34 0,1.22 0,2.45 0,3.67 0,0.24 -0.07,0.35 -0.31,0.32 -0.24,-0.03 -0.22,0 -0.34,0 l -12.51,0 c -0.55,0 -0.52,0.06 -0.52,-0.5 l 0,-12.25 z"
     id="path4328"
     inkscape:connector-curvature="0"
     style="fill:#ffffff" />
  <path
     class="cls-4"
     d="M 124.448,307.94597"
     id="path4330"
     inkscape:connector-curvature="0"
     style="fill:#ffffff" />
  <path
     class="cls-4"
     d="m 170.828,299.76597 a 3.68,3.68 0 0 1 2.41,-0.64 c 1.06,0 2.11,0 3.17,0 0.77,0 1,0.28 1,1.06 0,0.28 0,0.56 0,0.83"
     id="path4332"
     inkscape:connector-curvature="0"
     style="fill:#ffffff" />
  <path
     class="cls-4"
     d="m 101.658,309.25597 a 1,1 0 0 1 0,-0.67 c 0.82,-2 1.65,-4.05 2.48,-6.07 a 5.54,5.54 0 0 1 3.52,-3.39 5.38,5.38 0 1 1 2.7,10.41"
     id="path4334"
     inkscape:connector-curvature="0"
     style="fill:#ffffff" />
  <path
     class="cls-4"
     d="m 159.478,299.80597 a 5.47,5.47 0 0 1 6.61,0.84 5.16,5.16 0 0 1 1.42,3.43 c 0.06,1.59 0,3.19 0,4.79"
     id="path4336"
     inkscape:connector-curvature="0"
     style="fill:#ffffff" />
  <path
     class="cls-4"
     d="m 182.598,257.20597 0,13.22 c 0,0.48 0,0.48 -0.49,0.48 -0.89,0 -0.89,0 -0.89,-0.85 l 0,-13.43 c 0,-0.11 0,-0.22 0,-0.33 0,-0.31 0.1,-0.38 0.38,-0.37 0.5,0 1,0 1.51,0 a 0.63,0.63 0 0 1 0.64,0.39 l 3.94,6.92 q 1.31,2.29 2.62,4.59 a 1,1 0 0 0 0.37,0.49 l 0,-12.16 c 0,-0.17 0.08,-0.24 0.24,-0.23 l 0.11,0 c 1,0 1,0 1,1 l 0,13.6 c 0,0.41 0,0.41 -0.43,0.42 -1,0 -1,0 -1.45,-0.81 q -3.6,-6.24 -7.21,-12.48 a 0.68,0.68 0 0 0 -0.34,-0.45 z"
     id="path4338"
     inkscape:connector-curvature="0"
     style="fill:#ffffff" />
  <path
     class="cls-7"
     d="m 158.938,168.00597 c 0.14,-1 0.28,-1.93 0.41,-2.9 0.13,-0.97 0.24,-1.94 0.39,-2.9 a 14.5,14.5 0 0 1 0.3,-2 0.61,0.61 0 0 1 0.46,-0.15 c 1.49,0 3,-0.11 4.46,-0.22 a 0.7,0.7 0 0 1 0.52,0.15 c 0.6,1.45 1,3 1.55,4.46 0.35,1 0.67,2 1,3"
     id="path4340"
     inkscape:connector-curvature="0"
     style="fill:#00b0c0" />
  <path
     class="cls-4"
     d="m 205.698,269.52597 c -0.12,0.13 -0.24,0.27 -0.37,0.4"
     id="path4342"
     inkscape:connector-curvature="0"
     style="fill:#ffffff" />
  <path
     class="cls-4"
     d="m 127.858,263.39597 0,7 c 0,0.49 0,0.49 -0.47,0.49 -0.89,0 -0.89,0 -0.89,-0.86 0,-2 0,-3.93 0,-5.9 0,-0.45 0,-0.46 -0.45,-0.46 l -7.18,0 c -0.45,0 -0.46,0 -0.46,0.46 l 0,6.51 c 0,0.15 0,0.25 -0.22,0.25 l -0.94,0 c -0.14,0 -0.2,-0.08 -0.2,-0.21 l 0,-14.52 c 0,-0.17 0.08,-0.23 0.24,-0.23 l 0.11,0 c 1,0 1,0 1,1 l 0,5.24 c 0,0.47 0,0.45 0.46,0.45 l 7.18,0 c 0.45,0 0.45,0 0.45,-0.45 l 0,-5.74 c 0,-0.45 0,-0.45 0.46,-0.46 0.9,0 0.9,0 0.9,0.9 z"
     id="path4344"
     inkscape:connector-curvature="0"
     style="fill:#ffffff" />
  <path
     class="cls-7"
     d="m 145.078,288.88597 a 1,1 0 0 0 0.65,0.13 l 3.34,0 c 0.46,0 0.46,0 0.47,0.47 0.01,0.47 0,0.66 0,1 0,0.34 -0.07,0.31 -0.29,0.3 l -6.31,0 c -0.56,0 -0.48,0 -0.54,-0.49 a 2.33,2.33 0 0 1 0.94,-2.25 31.4,31.4 0 0 0 3.44,-3.48 3.21,3.21 0 0 0 0.84,-1.67"
     id="path4346"
     inkscape:connector-curvature="0"
     style="fill:#00b0c0" />
  <path
     class="cls-4"
     d="m 168.858,263.34597 0,-7.18 c 0,-0.17 0.07,-0.24 0.23,-0.24 l 8.07,0 c 0.38,0.05 0.21,0.35 0.21,0.53 0,0.18 0.18,0.51 -0.2,0.59"
     id="path4348"
     inkscape:connector-curvature="0"
     style="fill:#ffffff" />
  <path
     class="cls-4"
     d="M 218.248,263.62597"
     id="path4350"
     inkscape:connector-curvature="0"
     style="fill:#ffffff" />
  <path
     class="cls-4"
     d="m 103.808,263.36597 a 12,12 0 0 0 0.52,3.52 6.35,6.35 0 0 0 0.56,1.21 3.81,3.81 0 0 0 4.26,1.79 3,3 0 0 0 2,-1.41 5.89,5.89 0 0 0 0.76,-1.79 c 0.07,-0.27 0.19,-0.38 0.46,-0.29 l 0.11,0 c 0.87,0.16 0.86,0.16 0.6,1"
     id="path4352"
     inkscape:connector-curvature="0"
     style="fill:#ffffff" />
  <path
     class="cls-4"
     d="M 202.768,302.67597"
     id="path4354"
     inkscape:connector-curvature="0"
     style="fill:#ffffff" />
  <path
     class="cls-4"
     d="m 157.608,263.34597 0,-6.79 c 0,-0.13 0,-0.26 0,-0.39 a 0.21,0.21 0 0 1 0.24,-0.24 l 0.09,0 c 1,-0.06 1,-0.06 1,1 l 0,12.25 c 0,0.71 0,0.62 0.63,0.62 l 5.52,0 c 0.52,0 0.5,-0.06 0.49,0.46 0,0.78 0.07,0.66 -0.63,0.66 l -7.19,0"
     id="path4356"
     inkscape:connector-curvature="0"
     style="fill:#ffffff" />
  <path
     class="cls-4"
     d="m 146.408,263.40597 0,-7.24 c 0,-0.15 0.06,-0.24 0.23,-0.24 l 0.89,0 c 0.16,0 0.24,0.06 0.24,0.23 l 0,13 c 0,0.67 0,0.6 0.59,0.6 l 5.58,0 c 0.45,0 0.46,0 0.46,0.46 0,0.78 0.06,0.66 -0.64,0.66 l -6.82,0 c -0.47,0 -0.48,0 -0.48,-0.49 z"
     id="path4358"
     inkscape:connector-curvature="0"
     style="fill:#ffffff" />
  <path
     class="cls-8"
     d="m 166.588,285.10597 0,5.12 c 0,0.56 0,0.56 -0.59,0.56 -0.35,0 -0.7,0 -1,0 -0.3,0 -0.36,-0.11 -0.34,-0.37 0.02,-0.26 0,-0.55 0,-0.83 l 0,-6.73 c 0,-0.11 0,-0.22 0,-0.33 0,-0.26 -0.07,-0.37 -0.34,-0.36 -0.27,0.01 -0.74,0 -1.11,0 -0.22,0 -0.31,-0.08 -0.3,-0.29 l 0,-0.11 c 0,-0.78 0,-0.78 0.71,-1 a 2.71,2.71 0 0 0 1.44,-1 0.88,0.88 0 0 1 0.88,-0.41 c 0.78,0 0.7,-0.07 0.7,0.68 z"
     id="path4360"
     inkscape:connector-curvature="0"
     style="fill:#01b0c0" />
  <path
     class="cls-4"
     d="m 183.298,303.51597 0,-5.62 c 0,-0.53 0,-0.47 0.49,-0.47 0.86,0 0.86,0 0.86,0.88 l 0,11.14 c 0,0.17 -0.08,0.23 -0.24,0.23 l -0.06,0 c -1,0.08 -1,0.08 -1,-1 z"
     id="path4362"
     inkscape:connector-curvature="0"
     style="fill:#ffffff" />
  <path
     class="cls-2"
     d="m 151.488,87.435977 -0.16,-0.16 0.47,-0.54 c 0.1,0 0.15,0 0.12,0.11 a 3.19,3.19 0 0 1 -0.43,0.59 z"
     id="path4364"
     inkscape:connector-curvature="0"
     style="fill:#2dbcca" />
  <path
     class="cls-3"
     d="M 151.938,86.845977"
     id="path4366"
     inkscape:connector-curvature="0"
     style="fill:#8fd9e0" />
  <path
     class="cls-9"
     d="m 176.778,128.50597 c -0.12,0 -0.26,0 -0.35,0.12 l -0.33,-0.12 c 0,-0.21 0.12,-0.14 0.23,-0.11 a 0.77,0.77 0 0 1 0.45,0.11 z"
     id="path4368"
     inkscape:connector-curvature="0"
     style="fill:#29b8c6" />
  <path
     class="cls-10"
     d="m 176.328,128.39597 c -0.08,0 -0.18,0 -0.23,0.11"
     id="path4370"
     inkscape:connector-curvature="0"
     style="fill:#81d0d9" />
  <path
     class="cls-11"
     d="M 174.058,109.37597"
     id="path4372"
     inkscape:connector-curvature="0"
     style="fill:#ed1a37" />
  <path
     class="cls-4"
     d="m 117.828,240.81597 a 5.59,5.59 0 0 0 -1.89,-3.81"
     id="path4374"
     inkscape:connector-curvature="0"
     style="fill:#ffffff" />
  <path
     class="cls-4"
     d="m 158.938,248.79597 -2.51,-5.94 -1.89,-4.45 c -0.19,-0.45 -0.19,-0.46 0.28,-0.67 a 5.32,5.32 0 0 0 3,-3.37 9.78,9.78 0 0 0 0.32,-4.4"
     id="path4376"
     inkscape:connector-curvature="0"
     style="fill:#ffffff" />
  <path
     class="cls-4"
     d="m 156.258,304.25597 -2.08,0 0,-0.11 c 0.44,-0.17 0.88,-0.33 1.32,-0.51 a 0.83,0.83 0 0 0 0.53,-1.16"
     id="path4378"
     inkscape:connector-curvature="0"
     style="fill:#ffffff" />
  <path
     class="cls-4"
     d="m 145.078,299.82597 c 0,-0.53 0,-1.07 0,-1.61 0,-0.54 -0.24,-0.77 -0.79,-0.79 l -1,0 c -0.65,0 -0.87,0.23 -0.89,0.86 0,0.41 0,0.81 0,1.29 l -0.55,-0.24"
     id="path4380"
     inkscape:connector-curvature="0"
     style="fill:#ffffff" />
  <path
     class="cls-7"
     d="M 176.868,286.36597"
     id="path4382"
     inkscape:connector-curvature="0"
     style="fill:#00b0c0" />
  <path
     class="cls-7"
     d="M 160.258,282.68597"
     id="path4384"
     inkscape:connector-curvature="0"
     style="fill:#00b0c0" />
  <path
     class="cls-4"
     d="M 213.168,304.36597"
     id="path4386"
     inkscape:connector-curvature="0"
     style="fill:#ffffff" />
  <path
     class="cls-4"
     d="m 195.828,304.36597 -0.72,0 c -0.47,0 -0.47,0 -0.53,0.46"
     id="path4388"
     inkscape:connector-curvature="0"
     style="fill:#ffffff" />
  <path
     class="cls-4"
     d="m 142.798,270.53597 q -1.48,-4.75 -3,-9.5 c -0.49,-1.57 -1,-3.14 -1.48,-4.72 -0.09,-0.29 -0.21,-0.43 -0.54,-0.4"
     id="path4390"
     inkscape:connector-curvature="0"
     style="fill:#ffffff" />
</svg>
